<svg width="20" height="20" viewBox="0 0 20 20" fill="none" xmlns="http://www.w3.org/2000/svg">
<path fill-rule="evenodd" clip-rule="evenodd" d="M0.833374 9.99998C0.833374 4.93737 4.93743 0.833313 10 0.833313C15.0626 0.833313 19.1667 4.93737 19.1667 9.99998C19.1667 15.0626 15.0626 19.1666 10 19.1666C4.93743 19.1666 0.833374 15.0626 0.833374 9.99998Z" fill="#08AD36"/>
<path fill-rule="evenodd" clip-rule="evenodd" d="M14.4256 6.70245C14.7511 7.02789 14.7511 7.55553 14.4256 7.88097L9.25303 13.2976C8.9276 13.6231 8.39996 13.6231 8.07452 13.2976L5.57452 10.7976C5.24909 10.4722 5.24909 9.94456 5.57452 9.61912C5.89996 9.29368 6.4276 9.29368 6.75303 9.61912L8.66378 11.5299L13.2471 6.70245C13.5725 6.37702 14.1002 6.37702 14.4256 6.70245Z" fill="white"/>
</svg>
