<svg width="52" height="52" viewBox="0 0 52 52" fill="none" xmlns="http://www.w3.org/2000/svg">
<path d="M26 0L50.7275 17.9656L41.2824 47.0344H10.7176L1.27253 17.9656L26 0Z" fill="#4F934A"/>
<path fill-rule="evenodd" clip-rule="evenodd" d="M19.5 23C19.0398 23 18.6667 23.3731 18.6667 23.8333V32.1667C18.6667 32.6269 19.0398 33 19.5 33H32.8333C33.2936 33 33.6667 32.6269 33.6667 32.1667V23.8333C33.6667 23.3731 33.2936 23 32.8333 23H19.5ZM17 23.8333C17 22.4526 18.1193 21.3333 19.5 21.3333H32.8333C34.214 21.3333 35.3333 22.4526 35.3333 23.8333V32.1667C35.3333 33.5474 34.214 34.6667 32.8333 34.6667H19.5C18.1193 34.6667 17 33.5474 17 32.1667V23.8333Z" fill="white"/>
<path fill-rule="evenodd" clip-rule="evenodd" d="M22.7322 18.7322C23.2011 18.2634 23.837 18 24.5 18H27.8333C28.4964 18 29.1323 18.2634 29.6011 18.7322C30.0699 19.2011 30.3333 19.837 30.3333 20.5V33.8333C30.3333 34.2936 29.9602 34.6667 29.5 34.6667C29.0398 34.6667 28.6667 34.2936 28.6667 33.8333V20.5C28.6667 20.279 28.5789 20.067 28.4226 19.9107C28.2663 19.7545 28.0543 19.6667 27.8333 19.6667H24.5C24.279 19.6667 24.067 19.7545 23.9107 19.9107C23.7545 20.067 23.6667 20.279 23.6667 20.5V33.8333C23.6667 34.2936 23.2936 34.6667 22.8333 34.6667C22.3731 34.6667 22 34.2936 22 33.8333V20.5C22 19.837 22.2634 19.2011 22.7322 18.7322Z" fill="white"/>
</svg>
